PathFileType	4	(X/Y/Z)	C:\Users\willi\Desktop\Data_PaperCallum_v2\17_Akif\Gait05\marker_experimental_temp.trc
DataRate	CameraRate	NumFrames	NumMarkers	Units	OrigDataRate	OrigDataStartFrame	OrigNumFrames
100.000000	100.000000	7	27	mm	100.000000	106	213
Frame#	Time	C7			T10			Clav			Sternum			Right_Back			PCL_CRAN			PCL_RECHTS			PCL_LINKS			RCL_UL_CRAN			RCL_UL_POST			RCL_UL_ANT			RCL_LL_CRAN			RCL_LL_POST			RCL_LL_ANT			Right_Heel			Right_Toe			Right_M5			LCL_UL_CRAN			LCL_UL_POST			LCL_UL_ANT			LCL_LL_CRAN			LCL_LL_POST			LCL_LL_ANT			Left_Heel			Left_Toe			Left_M5			*26			
		X1	Y1	Z1	X2	Y2	Z2	X3	Y3	Z3	X4	Y4	Z4	X5	Y5	Z5	X6	Y6	Z6	X7	Y7	Z7	X8	Y8	Z8	X9	Y9	Z9	X10	Y10	Z10	X11	Y11	Z11	X12	Y12	Z12	X13	Y13	Z13	X14	Y14	Z14	X15	Y15	Z15	X16	Y16	Z16	X17	Y17	Z17	X18	Y18	Z18	X19	Y19	Z19	X20	Y20	Z20	X21	Y21	Z21	X22	Y22	Z22	X23	Y23	Z23	X24	Y24	Z24	X25	Y25	Z25	X26	Y26	Z26	X27	Y27	Z27	

107	1.06	351.5925903320311	1410.018676757813	134.3334655761718	381.2780456542968	1192.731811523438	143.7673645019531	208.6374359130859	1343.615844726563	156.6350860595703	144.5584259033202	1182.612426757813	179.0102691650391	368.7831115722656	1344.077026367188	17.73895645141599	370.0453491210937	1027.03125	148.8303527832031	380.2251586914062	968.1444702148438	124.7464828491211	381.0148620605468	967.55810546875	175.1094970703125	268.7375488281249	728.662109375	-8.381606101989762	289.8035583496093	667.7570190429688	0.04890592768786563	239.9086456298828	670.1841430664063	-6.394259452819839	345.1012268066406	378.6860656738281	35.17519378662107	376.0436706542969	321.0374755859375	35.23727798461912	325.2172241210938	315.9517211914063	38.69246673583982	432.6400146484375	37.5891036987305	132.9000091552734	231.4330444335938	32.29569625854494	123.3946914672851	279.3880004882813	10.77909469604494	66.2362823486328	211.7467651367187	764.8199462890625	338.2302856445313	201.2606658935547	700.4417114257813	335.0223693847656	158.8591613769531	725.2407836914063	342.2051391601563	169.1501770019531	415.123779296875	330.8903503417969	213.2426147460938	367.9757995605469	322.9375915527344	165.7923126220703	350.0676879882813	325.9689331054688	363.2546997070313	123.9594879150391	221.6427612304687	183.8011322021485	55.5097122192383	264.7669677734375	236.7449798583985	50.73633956909181	310.3339233398438	nan	nan	nan	
108	1.07	338.3295898437499	1409.116088867188	134.1298217773437	368.6415100097656	1191.985107421875	144.0148315429687	195.5398559570312	1342.435424804688	156.8074645996094	131.8126373291015	1181.235473632813	178.6390838623047	355.1527709960937	1343.460815429688	17.16379928588865	357.7527160644531	1026.132446289063	150.0891723632812	368.3213500976562	967.2569580078125	126.1134643554687	368.5700378417968	966.6925659179688	176.4885559082031	260.8513488769531	727.8668212890625	-8.016762733459489	282.6545410156249	667.2130737304688	0.6055765748023814	232.7941436767578	669.0057983398438	-6.23411607742311	341.6709594726563	378.9314575195313	35.96219635009763	373.2876586914063	321.5794372558594	36.31411361694334	322.5385131835938	315.9366455078125	39.34204101562498	432.435546875	38.19090270996097	134.0201110839843	231.3258056640625	32.24083328247072	123.3234252929687	279.5716552734375	10.90559959411623	66.36115264892577	196.8016357421875	764.4366455078125	337.9284362792969	185.2555084228515	700.3469848632813	334.7256774902344	143.0989379882812	725.6472778320313	341.1463317871094	147.6798095703125	412.3026123046875	328.8728637695313	188.4354400634766	362.34765625	321.5408325195313	139.9237060546875	347.4025268554688	323.9999389648438	321.78955078125	107.8211822509766	221.4270782470703	137.9568328857422	53.25535583496094	265.13037109375	190.4153900146485	44.82688140869142	310.6563110351563	nan	nan	nan	
109	1.08	325.0245361328124	1407.97265625	134.0059356689453	355.9276733398437	1190.998901367188	144.3808441162109	182.3726654052734	1341.032470703125	157.0286407470703	118.9799041748046	1179.645385742188	178.3150177001953	341.5090026855468	1342.587890625	16.70063972473142	345.3538208007812	1024.992431640625	151.4550170898437	356.2995300292968	966.1465454101563	127.5490264892578	355.9971618652343	965.5676879882813	177.9317016601562	252.7952423095703	726.99072265625	-7.687894821167007	275.2827758789062	666.5797729492188	1.116287708282454	225.4633026123047	667.7623901367188	-6.092812538146987	337.87939453125	379.1129150390625	36.74057006835935	370.1684265136719	322.0725708007813	37.38668060302732	319.5297241210938	315.8552551269531	40.01329040527342	432.2222595214844	38.84450531005862	135.1214904785156	231.2382354736328	32.1785011291504	123.2667770385742	279.787841796875	11.04222297668459	66.50848388671874	182.1909484863281	763.5675048828125	337.5563659667969	169.8291015625	699.7630004882813	334.2655334472656	127.8663635253906	725.4285278320313	339.9924621582031	126.8212280273437	409.0774841308594	326.7849426269531	163.9927215576172	356.4493103027344	320.1344604492188	114.6248397827148	344.6442260742188	322.0181884765625	278.9014892578125	92.34809875488283	221.3572845458984	91.74142456054689	52.14207839965821	265.5499267578125	143.4388275146485	39.93957901000977	311.0325927734375	nan	nan	nan	
110	1.09	311.6720886230468	1406.603759765625	133.9635925292968	343.1230468749999	1189.786499023438	144.8576049804687	169.128448486328	1339.427124023438	157.3008575439453	106.0494995117187	1177.862915039063	178.0466766357422	327.8452453613281	1341.473388671875	16.35087966918943	332.8309631347656	1023.625061035156	152.9086608886718	344.1365051269531	964.8256225585938	129.0361022949218	343.2807312011718	964.1985473632813	179.4220123291015	244.5411376953124	726.0501098632813	-7.397495746612564	267.6635437011718	665.8762817382813	1.578019976615889	217.8893280029297	666.471435546875	-5.968232154846205	333.7355346679688	379.242919921875	37.4899215698242	366.7167053222656	322.5415954589844	38.42613601684568	316.2036743164063	315.7234802246094	40.68550109863279	431.9941711425781	39.58301544189456	136.1706848144531	231.1751098632813	32.10836791992189	123.2243041992187	280.0339660644531	11.18543815612795	66.67377471923827	167.8932189941406	762.2162475585938	337.1263122558594	155.0120086669922	698.6630859375	333.6598205566406	113.1758575439453	724.549560546875	338.7763061523438	106.5651931762695	405.5247497558594	324.6390380859375	139.9484558105469	350.4081115722656	318.7033996582031	89.96256256103516	341.8910827636719	320.0704040527344	234.7661437988281	77.91983032226564	221.4312133789062	45.37155532836915	52.38938522338867	266.0588989257813	96.02550506591798	36.3352165222168	311.4845886230469	nan	nan	nan	
111	1.1	298.267608642578	1405.027954101563	134.0043792724609	330.2146911621093	1188.363647460938	145.4357299804687	155.8007507324218	1337.641967773438	157.6261901855469	93.01091766357416	1175.912231445313	177.8419036865234	314.1556091308593	1340.135498046875	16.11544609069822	320.1667785644531	1022.047485351563	154.4288787841797	331.8101806640624	963.3094482421875	130.5569763183593	330.4063720703124	962.604248046875	180.9420928955078	236.0644378662109	725.0612182617188	-7.14731073379518	259.7788696289062	665.1231689453125	1.988725662231429	210.0528106689453	665.150146484375	-5.858330249786389	329.25244140625	379.3368530273438	38.1892395019531	362.9661560058594	323.0149230957031	39.40148544311521	312.5776672363281	315.5599365234375	41.33665847778318	431.7454833984375	40.44137191772464	137.134536743164	231.1400299072266	32.03138351440431	123.1945419311523	280.3040161132813	11.33261203765871	66.85123443603514	153.8724365234375	760.4012451171875	336.6548767089844	140.8097076416015	697.033935546875	332.9454345703125	99.01744842529294	722.9945068359375	337.5384521484375	86.89266204833983	401.72802734375	322.4499816894531	116.3355560302734	344.3524475097656	317.2373657226563	65.98750305175781	339.2351379394531	318.193603515625	189.6781311035156	64.87679290771486	221.6288757324219	-0.857075572013842	54.14982223510742	266.6708679199219	48.47696685791018	34.21649169921875	312.0142517089844	nan	nan	nan	
112	1.11	284.8072204589843	1403.265991210938	134.129653930664	317.1904296874999	1186.748413085938	146.1045379638672	142.3842010498046	1335.7021484375	158.0064544677734	79.85399627685541	1173.820068359375	177.7075347900391	300.4348449707031	1338.595825195313	15.99474334716795	307.3444519042968	1020.2802734375	155.9928283691406	319.2998046874999	961.6162719726563	132.0936737060547	317.3611755371093	960.80810546875	182.4744415283203	227.3437194824218	724.039306640625	-6.937964916229262	251.6163635253906	664.340576171875	2.347295284271225	201.940689086914	663.8143920898438	-5.762237548828137	324.4452514648438	379.4114074707031	38.81781005859373	358.9458923339844	323.5211791992188	40.28065872192381	308.6706848144531	315.3842163085938	41.94440078735349	431.4713439941406	41.45417404174808	137.9814147949218	231.1339416503906	31.94994544982912	123.1750869750976	280.5882263183594	11.48220920562746	67.03383636474608	140.0781097412109	758.1566772460938	336.1617126464844	127.1952743530273	694.8810424804688	332.1755981445313	85.35224151611325	720.7730102539063	336.3242797851563	67.7744674682617	397.774658203125	320.2352905273438	93.18586730957031	338.4057006835938	315.7323608398438	42.73062515258789	336.755126953125	316.4126892089844	144.0608062744141	53.48792266845704	221.9104461669922	-46.56815719604491	57.47964096069336	267.3698120117188	1.189476728439348	33.69721984863281	312.5955505371094	nan	nan	nan	
113	1.12	271.2878417968749	1401.341674804688	134.3404235839843	304.0390930175781	1184.961303710938	146.852310180664	128.8745117187499	1333.635009765625	158.4430084228516	66.56902313232416	1171.615356445313	177.6491241455078	286.6785278320312	1336.878173828125	15.98861122131346	294.3482666015624	1018.347412109375	157.5765991210937	306.5865173339843	959.766845703125	133.6282653808593	304.1338806152343	958.8370361328125	184.0017852783203	218.3601379394531	722.9976196289063	-6.768605232238783	243.167724609375	663.54638671875	2.653576135635361	193.5448608398437	662.4776000976563	-5.681346893310558	319.3289794921875	379.4833068847656	39.3561096191406	354.6751098632813	324.0859375	41.03214263916013	304.5004272460938	315.2153015136719	42.48698425292967	431.1688842773438	42.65365982055667	138.6822509765625	231.1535949707031	31.86805915832521	123.1625823974609	280.8726196289063	11.63369655609133	67.21351623535155	126.4467468261718	755.5322265625	335.6680603027344	114.1040115356445	692.2332153320313	331.4145202636719	72.109992980957	717.9253540039063	335.1803894042969	49.17198944091797	393.7520751953125	318.0149230957031	70.53098297119141	332.6805114746094	314.191162109375	20.20287704467773	334.5094909667969	314.73876953125	98.46497344970705	43.92203903198243	222.2179260253906	-91.31204986572264	62.31447601318359	268.1015930175781	-45.35293960571287	34.77583312988281	313.1687622070313	nan	nan	nan	
